<?xml version="1.0" encoding="UTF-8" standalone="no"?>
<svg
   xmlns:dc="http://purl.org/dc/elements/1.1/"
   xmlns:cc="http://creativecommons.org/ns#"
   xmlns:rdf="http://www.w3.org/1999/02/22-rdf-syntax-ns#"
   xmlns:svg="http://www.w3.org/2000/svg"
   xmlns="http://www.w3.org/2000/svg"
   width="141.5874"
   height="181.53557"
   id="svg2"
   version="1.1"
   viewBox="0 0 169.90488 217.84268">
  <metadata
     id="metadata864">
    <rdf:RDF>
      <cc:Work
         rdf:about="">
        <dc:format>image/svg+xml</dc:format>
        <dc:type
           rdf:resource="http://purl.org/dc/dcmitype/StillImage" />
        <dc:title></dc:title>
      </cc:Work>
    </rdf:RDF>
  </metadata>
  <defs
     id="defs862" />
  <path
     id="path5943"
     style="fill:#ffffff;stroke:none;stroke-width:0.833333"
     d="M 41.101562 12.433594 C 38.605173 12.344739 36.250026 13.394966 34.615234 16.195312 C 29.970984 14.624162 24.488026 11.361326 19.630859 13.958984 C 13.691693 17.135318 12.7225 27.933979 18.78125 31.195312 L 21.066406 23.126953 C 25.52149 17.77812 32.53599 26.825911 34.566406 30.361328 C 40.047323 39.905162 41.990807 51.511594 44.744141 62.027344 C 45.802641 66.070094 47.762552 71.360141 45.292969 75.275391 C 42.093635 80.347474 39.120302 74.325814 38.292969 71.195312 L 32.257812 56.195312 L 30.664062 45.414062 C 29.595229 42.898646 27.101397 42.077682 25.039062 44.072266 C 22.329062 46.693182 21.949214 51.865411 21.185547 55.361328 C 19.524714 62.964995 18.640828 71.857677 20.298828 79.527344 L 25.166016 98.695312 L 20.251953 117.02734 C 19.06387 122.83401 10.689221 134.47492 13.355469 140.10742 C 14.22831 141.95143 15.084137 142.8902 15.904297 143.1875 L 15.53125 142.96875 L 23.148438 114.38086 L 26.203125 96.394531 C 26.203125 96.394531 21.079864 76.773345 20.732422 69.064453 C 20.38498 61.355553 22.708984 50.742188 22.708984 50.742188 L 28.238281 46.84375 L 30.275391 57.025391 L 31.833984 62.390625 C 35.260482 66.256539 37.214342 72.405718 37.691406 78.179688 L 52.494141 79.449219 C 53.286727 78.951298 53.949108 78.201667 54.615234 77.027344 L 57.115234 77.027344 C 56.888566 78.138755 56.720012 79.033124 56.744141 79.8125 L 68.398438 80.8125 L 67.115234 79.527344 L 68.78125 79.527344 L 68.78125 80.845703 L 72.019531 81.123047 C 72.019531 81.123047 93.06953 98.496248 99.404297 103.78516 C 100.12193 104.38431 100.59174 104.77554 101.19531 105.28125 C 93.768478 96.872764 80.733862 91.045 76.878906 79.527344 C 75.278073 74.743844 78.696458 68.60923 78.765625 63.695312 L 74.355469 40.361328 C 73.947969 38.248995 70.642839 27.09501 67.138672 32.308594 L 65.449219 51.195312 C 58.726052 40.366562 59.495719 26.897151 50.199219 17.115234 C 47.755016 14.543386 44.311208 12.547835 41.101562 12.433594 z M 101.19531 105.28125 C 102.15868 106.37196 103.03932 107.49945 103.78125 108.69531 C 95.717083 106.76198 87.270186 100.02716 81.478516 94.236328 C 77.383516 90.142411 76.126719 85.411161 70.449219 82.861328 C 74.218385 89.632245 86.631719 103.09299 85.449219 110.36133 C 93.264219 106.52299 102.92672 110.70216 107.94922 117.86133 C 111.09422 117.12299 113.55589 116.60984 115.44922 119.52734 L 121.28125 117.02734 L 117.11523 117.02734 L 119.61523 115.36133 L 115.44922 112.86133 C 115.53613 112.87076 115.62544 112.88867 115.71289 112.90039 C 114.87386 112.58776 114.04259 112.32363 113.21484 112.07812 C 113.74275 112.56694 114.2153 113.1038 114.61523 113.69531 C 111.20477 112.37265 107.27803 111.32322 105.00586 108.40234 C 104.00203 107.62789 102.66374 106.51161 101.19531 105.28125 z M 105.00586 108.40234 C 107.2316 110.1195 108.69193 110.89754 110.99414 111.46289 C 111.73323 111.64439 112.47314 111.85814 113.21484 112.07812 C 110.90916 109.94316 107.55133 108.72317 104.61523 107.86133 C 104.73867 108.04963 104.87014 108.22788 105.00586 108.40234 z M 115.71289 112.90039 C 117.95422 113.73554 120.24865 114.83864 122.68164 116.41797 C 126.84151 119.11828 123.26562 131.68945 123.26562 131.68945 L 121.28516 132.27734 L 126.28125 132.02734 C 122.06827 137.20869 117.53631 135.93567 112.25977 134.95508 L 74.085938 146.2832 L 73.552734 172.79688 C 73.630913 172.81693 73.701082 172.84258 73.78125 172.86133 C 75.459108 172.52523 72.791068 155.72508 76.427734 149.70508 C 78.478568 146.31091 83.590234 144.90227 87.115234 143.69727 L 103.78125 139.61523 C 111.91292 139.21857 119.68828 141.88737 126.92578 136.2207 C 137.18334 128.18968 124.9979 114.14472 115.71289 112.90039 z M 73.552734 172.79688 C 73.403882 172.75869 73.259038 172.71861 73.117188 172.67578 C 73.187566 172.70939 73.550781 172.875 73.550781 172.875 L 73.552734 172.79688 z M 73.117188 172.67578 C 72.821556 172.53461 72.196773 172.24137 70.947266 171.69336 C 71.570397 172.09247 72.285182 172.42455 73.117188 172.67578 z M 70.947266 171.69336 C 68.086687 169.8612 67.130298 166.58768 65.449219 162.86133 L 67.949219 163.69531 L 60.449219 155.36133 C 59.242219 160.85049 56.002385 152.24216 55.449219 150.36133 L 63.78125 157.02734 L 65.449219 155.36133 L 72.115234 161.19531 L 64.615234 152.86133 L 72.949219 152.02734 C 70.234219 147.83318 65.624583 148.11531 61.28125 146.19531 L 61.28125 150.36133 L 55.449219 147.86133 L 57.115234 145.36133 L 55.449219 142.86133 C 61.630885 140.41299 63.27875 145.11133 68.78125 145.36133 L 65.449219 144.52734 C 66.565885 141.21484 70.949583 135.76865 73.78125 133.69531 C 73.865417 131.27448 74.177917 130.72318 76.28125 129.52734 L 74.615234 133.69531 L 77.115234 137.02734 L 79.615234 135.36133 C 79.019401 138.19633 76.147917 138.00901 73.78125 139.52734 L 76.28125 140.36133 L 69.615234 142.86133 C 71.685234 144.15466 72.346901 143.83716 74.615234 142.86133 C 83.795238 146.09549 97.050417 135.52401 106.28125 134.52734 L 106.28125 132.86133 L 102.11523 131.19531 C 104.23023 130.09031 104.84339 129.33568 105.44922 127.02734 C 99.200051 126.28651 85.378389 124.77133 82.949219 117.86133 C 85.567555 118.55049 87.065234 118.78216 89.615234 117.86133 L 82.115234 115.36133 L 85.158203 112.92578 L 77.949219 114.52734 L 78.78125 115.36133 C 76.127083 115.97966 74.630234 115.57901 72.115234 114.52734 C 69.021068 120.04151 64.157917 118.09448 58.78125 118.69531 C 57.17225 115.69865 55.429234 115.31049 52.115234 115.36133 L 52.115234 112.02734 L 57.115234 113.69531 L 56.28125 111.19531 L 58.78125 111.19531 C 56.207417 108.40031 53.233484 107.09781 49.615234 108.69531 C 49.353318 106.66531 49.157068 106.84734 47.115234 107.02734 L 47.949219 101.19531 L 43.78125 100.36133 C 44.70325 103.24883 44.839667 105.00799 43.78125 107.86133 L 42.115234 107.86133 C 39.991318 103.41299 40.256083 96.85151 41.28125 92.027344 C 21.704 83.805344 24.700302 64.604745 27.949219 47.861328 C 13.356135 61.296495 27.061401 84.567479 32.115234 98.695312 L 30.449219 98.695312 C 31.772135 102.13698 35.259385 114.90281 40.449219 108.69531 C 45.480552 111.17948 44.911719 115.45216 45.449219 120.36133 L 42.115234 121.19531 L 41.28125 117.02734 L 37.949219 117.86133 L 34.615234 113.69531 L 35.449219 116.19531 C 40.030135 121.86531 42.163901 129.45615 44.615234 136.19531 C 41.048401 134.24531 38.900984 130.61734 37.115234 127.02734 L 39.615234 127.86133 L 35.449219 116.19531 L 32.115234 116.19531 C 31.374734 112.22031 31.047083 108.79383 28.78125 105.36133 L 27.949219 110.36133 L 26.28125 107.02734 C 26.522667 111.43318 29.320667 117.28781 33.78125 118.69531 L 33.78125 123.69531 L 39.84375 133.69336 L 51.28125 144.52734 L 44.615234 141.19531 C 48.348568 145.71615 52.180167 147.66698 53.78125 153.69531 L 45.449219 148.69531 C 47.757052 152.17198 49.975333 154.44698 53.78125 156.19531 L 51.28125 157.86133 C 53.156419 160.64124 56.292678 163.96463 56.292969 167.39258 C 57.239338 167.36366 58.354289 167.49782 59.564453 167.74805 L 56.28125 160.36133 L 57.949219 162.02734 L 59.615234 161.19531 C 60.27252 163.53056 60.508281 165.49571 59.648438 167.76367 C 63.481162 168.57005 68.110679 170.44928 70.947266 171.69336 z M 59.648438 167.76367 C 59.619683 167.75762 59.593109 167.75397 59.564453 167.74805 L 59.615234 167.86133 C 59.628191 167.82825 59.635948 167.79662 59.648438 167.76367 z M 56.292969 167.39258 C 56.239105 167.39422 56.177713 167.38788 56.125 167.39062 L 56.28125 167.86133 C 56.294728 167.70464 56.292982 167.54887 56.292969 167.39258 z M 56.125 167.39062 L 55.449219 165.36133 C 51.414052 165.15049 49.402734 158.48716 47.115234 155.36133 L 46.28125 159.52734 L 42.949219 153.97461 L 42.949219 157.02734 C 31.389719 151.87651 27.366401 141.14234 24.615234 129.52734 L 22.949219 129.52734 C 22.645605 132.2756 19.655269 144.54721 15.904297 143.1875 L 29.302734 151.01562 C 29.302734 151.01562 36.069498 155.95949 44.019531 160.29297 C 44.102256 160.33806 44.169279 160.38096 44.25 160.42578 C 46.963012 160.78499 48.550919 161.54172 50.449219 163.69531 L 45.986328 161.46289 C 51.748761 165.16498 51.094569 167.67731 56.083984 167.39062 C 56.096785 167.38989 56.11213 167.39129 56.125 167.39062 z M 45.986328 161.46289 C 45.461517 161.12572 44.890795 160.78157 44.25 160.42578 C 44.092862 160.40498 43.946328 160.37962 43.78125 160.36133 L 45.986328 161.46289 z M 77.949219 114.52734 L 80.449219 108.69531 L 77.115234 113.69531 L 77.949219 114.52734 z M 80.449219 108.69531 L 83.773438 110.5957 C 82.932796 109.7711 81.943848 109.22593 80.449219 108.69531 z M 83.773438 110.5957 C 84.341742 111.15316 84.847432 111.83982 85.380859 112.74805 L 86.28125 112.02734 L 83.773438 110.5957 z M 85.380859 112.74805 L 85.158203 112.92578 L 85.449219 112.86133 C 85.425785 112.82083 85.404148 112.7877 85.380859 112.74805 z M 112.25977 134.95508 L 121.28516 132.27734 L 109.61523 132.86133 L 109.61523 134.52734 C 110.51971 134.64255 111.39722 134.79478 112.25977 134.95508 z M 68.78125 80.845703 L 68.398438 80.8125 L 68.78125 81.195312 L 68.78125 80.845703 z M 56.744141 79.8125 L 52.494141 79.449219 C 51.539838 80.048733 50.392887 80.277792 48.78125 80.361328 C 49.39425 82.495911 50.047401 82.847562 52.115234 83.695312 C 49.753901 87.409563 46.78775 89.990094 46.28125 94.527344 L 48.78125 92.861328 C 50.84275 94.371328 52.120651 94.225313 54.615234 93.695312 C 51.867318 96.945313 50.501635 98.435495 50.449219 102.86133 C 52.199135 101.56633 52.226068 100.88031 52.115234 98.695312 C 55.093401 100.55615 56.029969 101.83716 55.449219 105.36133 C 60.610635 102.78133 63.576901 100.91281 69.615234 101.19531 L 68.78125 98.695312 C 72.02125 101.49448 72.067734 105.65484 77.115234 104.52734 C 74.117734 92.667344 65.487083 94.54651 56.28125 97.027344 L 59.615234 92.861328 L 53.78125 92.861328 L 53.78125 88.695312 L 56.28125 91.195312 L 63.78125 92.861328 C 62.86875 89.534745 61.196719 87.422979 57.949219 86.195312 L 58.78125 82.861328 C 57.272459 81.905387 56.780705 80.993583 56.744141 79.8125 z M 37.691406 78.179688 L 36.384766 78.068359 L 31.833984 62.390625 C 31.1507 61.619716 30.415893 60.928434 29.615234 60.361328 L 35.449219 87.027344 L 37.115234 87.027344 C 37.768553 84.510761 37.957963 81.405849 37.691406 78.179688 z M 41.134766 20.087891 C 50.581752 20.477308 53.144141 37.276562 54.654297 44.404297 C 55.303797 47.470214 56.868109 50.544312 55.818359 53.570312 L 39.152344 20.236328 C 39.845057 20.108707 40.504967 20.061929 41.134766 20.087891 z M 37.949219 26.195312 C 41.776552 29.358479 44.563302 33.786062 45.449219 38.695312 C 40.780219 37.100479 39.152719 30.595479 37.949219 26.195312 z M 45.449219 42.027344 C 48.094552 44.647177 49.237568 47.508146 49.615234 51.195312 C 45.722651 49.831229 45.610885 45.73501 45.449219 42.027344 z M 58.78125 42.027344 L 60.449219 45.361328 C 58.723719 44.258328 58.665333 44.071427 58.78125 42.027344 z M 68.78125 47.027344 L 70.449219 47.027344 C 71.045052 51.844927 71.829401 58.311396 67.115234 61.195312 C 67.276901 56.044146 66.682917 51.966927 68.78125 47.027344 z M 62.949219 55.361328 L 62.949219 60.361328 L 59.615234 56.195312 L 62.949219 55.361328 z M 51.28125 60.361328 L 52.949219 60.361328 L 54.615234 64.527344 L 52.115234 65.361328 L 51.28125 60.361328 z M 68.78125 66.195312 L 70.449219 67.861328 L 68.78125 68.695312 L 68.78125 66.195312 z M 74.615234 66.195312 L 76.28125 66.195312 L 74.615234 76.195312 L 72.949219 76.195312 L 74.615234 66.195312 z M 65.449219 68.695312 C 67.520052 71.766396 65.221068 72.978328 62.115234 72.861328 L 62.115234 71.195312 L 65.449219 68.695312 z M 54.615234 70.361328 L 57.949219 74.527344 L 53.78125 71.195312 L 54.615234 70.361328 z M 47.949219 83.695312 L 43.78125 84.527344 L 45.449219 87.861328 L 47.115234 87.861328 L 47.949219 83.695312 z M 79.615234 107.02734 L 62.949219 112.02734 C 65.805052 114.65651 78.794401 110.85818 79.615234 107.02734 z M 89.615234 112.86133 L 92.115234 117.02734 L 98.78125 116.19531 C 96.13625 113.19781 93.491901 112.89633 89.615234 112.86133 z M 54.615234 118.69531 L 59.615234 120.36133 L 58.78125 123.69531 C 55.972167 122.66531 55.095318 121.65365 54.615234 118.69531 z M 74.972656 119.25977 C 77.276582 119.2087 79.544687 119.39516 81.28125 119.52734 C 79.667917 121.64818 77.373385 122.47883 75.449219 120.36133 L 65.449219 122.86133 C 67.194531 120.09206 71.13278 119.34487 74.972656 119.25977 z M 24.615234 119.52734 C 24.909266 120.83449 25.178244 122.16098 25.449219 123.48633 L 25.449219 122.02734 L 25.917969 122.49805 C 25.872494 121.53176 25.502842 120.65933 24.615234 119.52734 z M 25.917969 122.49805 C 25.93569 122.8746 25.90295 123.26875 25.832031 123.69531 L 27.115234 123.69531 L 25.917969 122.49805 z M 27.115234 123.69531 L 27.949219 126.19531 L 27.949219 123.69531 L 30.769531 126.16211 L 28.78125 121.19531 L 27.115234 123.69531 z M 30.769531 126.16211 L 32.115234 129.52734 L 34.388672 130.0957 L 34.615234 129.52734 L 30.769531 126.16211 z M 34.388672 130.0957 L 33.603516 132.05859 C 34.093115 131.4478 34.684667 130.87976 35.449219 130.36133 L 34.388672 130.0957 z M 33.603516 132.05859 C 32.326321 133.65195 31.815766 135.56495 31.28125 137.86133 L 33.603516 132.05859 z M 25.832031 123.69531 L 25.494141 123.69531 C 25.550196 123.96995 25.610101 124.24079 25.666016 124.51562 C 25.73564 124.22427 25.788783 123.95544 25.832031 123.69531 z M 25.494141 123.69531 C 25.479844 123.62527 25.463535 123.55635 25.449219 123.48633 L 25.449219 123.69531 L 25.494141 123.69531 z M 113.85352 121.72656 C 112.22646 121.61352 110.77617 122.25484 109.61523 124.52734 C 111.62357 126.19068 112.27339 126.69948 110.44922 128.69531 C 115.21922 129.59531 121.94005 130.59068 122.94922 124.52734 C 119.76953 124.19974 116.56527 121.91497 113.85352 121.72656 z M 29.060547 121.75 L 29.337891 122.30469 L 29.060547 121.75 z M 25.449219 125.36133 C 25.714302 136.69049 32.032802 149.47281 42.949219 153.69531 L 41.638672 151.07617 L 41.28125 151.19531 L 42.714844 153.58398 C 30.743855 148.15055 28.186308 136.84359 25.873047 125.50195 L 25.449219 125.36133 z M 41.638672 151.07617 L 43.78125 150.36133 C 43.502838 150.0779 43.228379 149.81231 42.949219 149.53516 L 42.949219 150.36133 L 41.28125 150.36133 L 41.638672 151.07617 z M 42.949219 149.53516 L 42.949219 148.69531 L 42.115234 147.86133 L 41.548828 148.14453 C 42.012697 148.60248 42.479349 149.06866 42.949219 149.53516 z M 41.548828 148.14453 C 40.337093 146.94827 39.16436 145.74725 38.119141 144.4668 C 38.774696 145.99455 39.139874 147.61033 38.78125 149.52734 L 41.548828 148.14453 z M 38.119141 144.4668 C 37.178569 142.27482 35.624678 140.27003 34.615234 137.86133 C 35.305467 140.49035 36.576575 142.57707 38.119141 144.4668 z M 84.615234 127.86133 C 83.337734 131.70966 79.291901 132.05198 77.115234 128.69531 L 84.615234 127.86133 z M 94.035156 131.78906 C 96.028819 131.78489 97.765625 132.55859 98.78125 134.52734 L 82.115234 138.69531 C 84.023049 135.57635 89.649098 131.79824 94.035156 131.78906 z M 23.78125 138.69531 L 29.615234 151.19531 C 25.203068 148.82198 24.40925 143.35531 23.78125 138.69531 z M 37.949219 138.69531 C 38.712552 141.87115 39.781635 143.55068 42.949219 144.52734 C 41.914219 141.55651 41.018469 139.67948 37.949219 138.69531 z M 35.449219 145.36133 L 37.949219 147.86133 C 37.547135 145.89133 37.419219 145.76299 35.449219 145.36133 z M 62.949219 164.52734 L 67.115234 168.69531 C 64.706901 167.68448 63.744219 167.02234 62.949219 164.52734 z "
     transform="scale(1.2)" />
</svg>
